<svg width="96" height="96" xmlns="http://www.w3.org/2000/svg">
 <g id="Layer_1">
  <title>Layer 1</title>
  <g id="svg_2">
   <path fill="#a3d663" stroke-opacity="0" id="svg_47" title="Rectangle 1" d="m9180,9557l359,0l0,74l-359,0l0,-74z"/>
   <path fill="#93bc5a" stroke-opacity="0" title="Rectangle 6" d="m9310.5,9637.67769c3.33333,-1.92451 7.5,0.48112 7.5,4.33012c0,0 0,5.99219 0,5.99219c0,0 221,0 221,0c0,0 0,-17 0,-17c0,0 -359,0 -359,0c0,0 0,17 0,17c0,0 128,0 128,0c0,-3.49873 0,-5.99219 0,-5.99219c0,-1.78633 0.95299,-3.43696 2.5,-4.33012z" id="svg_46"/>
   <path fill="#494949" stroke-opacity="0" id="svg_45" title="Rectangle 7" d="m9205,9577.5l33,0l0,33l-33,0l0,-33z"/>
   <path fill="#494949" id="svg_44" title="Rectangle 8" d="m9262,9577.5l33,0l0,33l-33,0l0,-33z"/>
   <path fill="#494949" id="svg_43" title="Rectangle 9" d="m9482,9577.5l33,0l0,33l-33,0l0,-33z"/>
   <path fill="#494949" id="svg_42" title="Rectangle 15" d="m9482,9577.5l33,0l0,33l-33,0l0,-33z"/>
   <path fill="#494949" id="svg_41" title="Rectangle 18" d="m9425,9577.5l33,0l0,33l-33,0l0,-33z"/>
   <path fill="#494949" id="svg_40" title="Rectangle 23" d="m9368,9577.5l33,0l0,33l-33,0l0,-33z"/>
   <path fill="#f5c00b" title="Rectangle 28" d="m9188.25,9633.34442c1.58493,-0.93042 3.54665,0.12993 3.73526,1.91897c0,0 0.01474,0 0.01474,0c0,0 0,8.47322 0,8.47322c0,0 -0.01544,0 -0.01544,0c-0.08753,0.79711 -0.54199,1.5124 -1.23456,1.91897c-1.58493,0.93042 -3.54665,-0.12993 -3.73526,-1.91897c0,0 -0.01474,0 -0.01474,0c0,0 0,-8.47322 0,-8.47322c0,0 0.01544,0 0.01544,0c0.08753,-0.79711 0.54199,-1.5124 1.23456,-1.91897z" id="svg_39"/>
   <path fill="#f5c00b" id="svg_38" title="Path 1" d="m9198.25,9633.3444c1.5849,-0.9304 3.5467,0.13 3.7353,1.919c0,0 0.0147,0 0.0147,0c0,0 0,8.4732 0,8.4732c0,0 -0.0154,0 -0.0154,0c-0.0876,0.7971 -0.542,1.5124 -1.2346,1.919c-1.5849,0.9304 -3.5467,-0.13 -3.7353,-1.919c0,0 -0.0147,0 -0.0147,0c0,0 0,-8.4732 0,-8.4732c0,0 0.0154,0 0.0154,0c0.0876,-0.7971 0.542,-1.5124 1.2346,-1.919z"/>
   <path fill="#f5c00b" id="svg_37" title="Path 3" d="m9208.25,9633.3444c1.5849,-0.9304 3.5467,0.13 3.7353,1.919c0,0 0.0147,0 0.0147,0c0,0 0,8.4732 0,8.4732c0,0 -0.0154,0 -0.0154,0c-0.0876,0.7971 -0.542,1.5124 -1.2346,1.919c-1.5849,0.9304 -3.5467,-0.13 -3.7353,-1.919c0,0 -0.0147,0 -0.0147,0c0,0 0,-8.4732 0,-8.4732c0,0 0.0154,0 0.0154,0c0.0876,-0.7971 0.542,-1.5124 1.2346,-1.919z"/>
   <path fill="#f5c00b" id="svg_36" title="Path 4" d="m9218.25,9633.3444c1.5849,-0.9304 3.5467,0.13 3.7353,1.919c0,0 0.0147,0 0.0147,0c0,0 0,8.4732 0,8.4732c0,0 -0.0154,0 -0.0154,0c-0.0876,0.7971 -0.542,1.5124 -1.2346,1.919c-1.5849,0.9304 -3.5467,-0.13 -3.7353,-1.919c0,0 -0.0147,0 -0.0147,0c0,0 0,-8.4732 0,-8.4732c0,0 0.0154,0 0.0154,0c0.0876,-0.7971 0.542,-1.5124 1.2346,-1.919z"/>
   <path fill="#f5c00b" id="svg_35" title="Path 5" d="m9228.25,9633.3444c1.5849,-0.9304 3.5467,0.13 3.7353,1.919c0,0 0.0147,0 0.0147,0c0,0 0,8.4732 0,8.4732c0,0 -0.0154,0 -0.0154,0c-0.0876,0.7971 -0.542,1.5124 -1.2346,1.919c-1.5849,0.9304 -3.5467,-0.13 -3.7353,-1.919c0,0 -0.0147,0 -0.0147,0c0,0 0,-8.4732 0,-8.4732c0,0 0.0154,0 0.0154,0c0.0876,-0.7971 0.542,-1.5124 1.2346,-1.919z"/>
   <path fill="#f5c00b" id="svg_34" title="Path 6" d="m9258.25,9633.3444c1.5849,-0.9304 3.5467,0.13 3.7353,1.919c0,0 0.0147,0 0.0147,0c0,0 0,8.4732 0,8.4732c0,0 -0.0154,0 -0.0154,0c-0.0876,0.7971 -0.542,1.5124 -1.2346,1.919c-1.5849,0.9304 -3.5467,-0.13 -3.7353,-1.919c0,0 -0.0147,0 -0.0147,0c0,0 0,-8.4732 0,-8.4732c0,0 0.0154,0 0.0154,0c0.0876,-0.7971 0.542,-1.5124 1.2346,-1.919z"/>
   <path fill="#f5c00b" id="svg_33" title="Path 7" d="m9248.25,9633.3444c1.5849,-0.9304 3.5467,0.13 3.7353,1.919c0,0 0.0147,0 0.0147,0c0,0 0,8.4732 0,8.4732c0,0 -0.0154,0 -0.0154,0c-0.0876,0.7971 -0.542,1.5124 -1.2346,1.919c-1.5849,0.9304 -3.5467,-0.13 -3.7353,-1.919c0,0 -0.0147,0 -0.0147,0c0,0 0,-8.4732 0,-8.4732c0,0 0.0154,0 0.0154,0c0.0876,-0.7971 0.542,-1.5124 1.2346,-1.919z"/>
   <path fill="#f5c00b" id="svg_32" title="Path 8" d="m9238.25,9633.3444c1.5849,-0.9304 3.5467,0.13 3.7353,1.919c0,0 0.0147,0 0.0147,0c0,0 0,8.4732 0,8.4732c0,0 -0.0154,0 -0.0154,0c-0.0876,0.7971 -0.542,1.5124 -1.2346,1.919c-1.5849,0.9304 -3.5467,-0.13 -3.7353,-1.919c0,0 -0.0147,0 -0.0147,0c0,0 0,-8.4732 0,-8.4732c0,0 0.0154,0 0.0154,0c0.0876,-0.7971 0.542,-1.5124 1.2346,-1.919z"/>
   <path fill="#f5c00b" id="svg_31" title="Path 10" d="m9298.25,9633.3444c1.5849,-0.9304 3.5467,0.13 3.7353,1.919c0,0 0.0147,0 0.0147,0c0,0 0,8.4732 0,8.4732c0,0 -0.0154,0 -0.0154,0c-0.0876,0.7971 -0.542,1.5124 -1.2346,1.919c-1.5849,0.9304 -3.5467,-0.13 -3.7353,-1.919c0,0 -0.0147,0 -0.0147,0c0,0 0,-8.4732 0,-8.4732c0,0 0.0154,0 0.0154,0c0.0876,-0.7971 0.542,-1.5124 1.2346,-1.919z"/>
   <path fill="#f5c00b" id="svg_30" title="Path 11" d="m9288.25,9633.3444c1.5849,-0.9304 3.5467,0.13 3.7353,1.919c0,0 0.0147,0 0.0147,0c0,0 0,8.4732 0,8.4732c0,0 -0.0154,0 -0.0154,0c-0.0876,0.7971 -0.542,1.5124 -1.2346,1.919c-1.5849,0.9304 -3.5467,-0.13 -3.7353,-1.919c0,0 -0.0147,0 -0.0147,0c0,0 0,-8.4732 0,-8.4732c0,0 0.0154,0 0.0154,0c0.0876,-0.7971 0.542,-1.5124 1.2346,-1.919z"/>
   <path fill="#f5c00b" id="svg_29" title="Path 12" d="m9278.25,9633.3444c1.5849,-0.9304 3.5467,0.13 3.7353,1.919c0,0 0.0147,0 0.0147,0c0,0 0,8.4732 0,8.4732c0,0 -0.0154,0 -0.0154,0c-0.0876,0.7971 -0.542,1.5124 -1.2346,1.919c-1.5849,0.9304 -3.5467,-0.13 -3.7353,-1.919c0,0 -0.0147,0 -0.0147,0c0,0 0,-8.4732 0,-8.4732c0,0 0.0154,0 0.0154,0c0.0876,-0.7971 0.542,-1.5124 1.2346,-1.919z"/>
   <path fill="#f5c00b" id="svg_28" title="Path 13" d="m9268.25,9633.3444c1.5849,-0.9304 3.5467,0.13 3.7353,1.919c0,0 0.0147,0 0.0147,0c0,0 0,8.4732 0,8.4732c0,0 -0.0154,0 -0.0154,0c-0.0876,0.7971 -0.542,1.5124 -1.2346,1.919c-1.5849,0.9304 -3.5467,-0.13 -3.7353,-1.919c0,0 -0.0147,0 -0.0147,0c0,0 0,-8.4732 0,-8.4732c0,0 0.0154,0 0.0154,0c0.0876,-0.7971 0.542,-1.5124 1.2346,-1.919z"/>
   <path fill="#f5c00b" id="svg_27" title="Path 14" d="m9437.25,9633.3444c1.5849,-0.9304 3.5467,0.13 3.7353,1.919c0,0 0.0147,0 0.0147,0c0,0 0,8.4732 0,8.4732c0,0 -0.0154,0 -0.0154,0c-0.0876,0.7971 -0.542,1.5124 -1.2346,1.919c-1.5849,0.9304 -3.5467,-0.13 -3.7353,-1.919c0,0 -0.0147,0 -0.0147,0c0,0 0,-8.4732 0,-8.4732c0,0 0.0154,0 0.0154,0c0.0876,-0.7971 0.542,-1.5124 1.2346,-1.919z"/>
   <path fill="#f5c00b" id="svg_26" title="Path 15" d="m9427.25,9633.3444c1.5849,-0.9304 3.5467,0.13 3.7353,1.919c0,0 0.0147,0 0.0147,0c0,0 0,8.4732 0,8.4732c0,0 -0.0154,0 -0.0154,0c-0.0876,0.7971 -0.542,1.5124 -1.2346,1.919c-1.5849,0.9304 -3.5467,-0.13 -3.7353,-1.919c0,0 -0.0147,0 -0.0147,0c0,0 0,-8.4732 0,-8.4732c0,0 0.0154,0 0.0154,0c0.0876,-0.7971 0.542,-1.5124 1.2346,-1.919z"/>
   <path fill="#f5c00b" id="svg_25" title="Path 16" d="m9417.25,9633.3444c1.5849,-0.9304 3.5467,0.13 3.7353,1.919c0,0 0.0147,0 0.0147,0c0,0 0,8.4732 0,8.4732c0,0 -0.0154,0 -0.0154,0c-0.0876,0.7971 -0.542,1.5124 -1.2346,1.919c-1.5849,0.9304 -3.5467,-0.13 -3.7353,-1.919c0,0 -0.0147,0 -0.0147,0c0,0 0,-8.4732 0,-8.4732c0,0 0.0154,0 0.0154,0c0.0876,-0.7971 0.542,-1.5124 1.2346,-1.919z"/>
   <path fill="#f5c00b" id="svg_24" title="Path 17" d="m9407.25,9633.3444c1.5849,-0.9304 3.5467,0.13 3.7353,1.919c0,0 0.0147,0 0.0147,0c0,0 0,8.4732 0,8.4732c0,0 -0.0154,0 -0.0154,0c-0.0876,0.7971 -0.542,1.5124 -1.2346,1.919c-1.5849,0.9304 -3.5467,-0.13 -3.7353,-1.919c0,0 -0.0147,0 -0.0147,0c0,0 0,-8.4732 0,-8.4732c0,0 0.0154,0 0.0154,0c0.0876,-0.7971 0.542,-1.5124 1.2346,-1.919z"/>
   <path fill="#f5c00b" id="svg_23" title="Path 18" d="m9397.25,9633.3444c1.5849,-0.9304 3.5467,0.13 3.7353,1.919c0,0 0.0147,0 0.0147,0c0,0 0,8.4732 0,8.4732c0,0 -0.0154,0 -0.0154,0c-0.0876,0.7971 -0.542,1.5124 -1.2346,1.919c-1.5849,0.9304 -3.5467,-0.13 -3.7353,-1.919c0,0 -0.0147,0 -0.0147,0c0,0 0,-8.4732 0,-8.4732c0,0 0.0154,0 0.0154,0c0.0876,-0.7971 0.542,-1.5124 1.2346,-1.919z"/>
   <path fill="#f5c00b" id="svg_22" title="Path 19" d="m9387.25,9633.3444c1.5849,-0.9304 3.5467,0.13 3.7353,1.919c0,0 0.0147,0 0.0147,0c0,0 0,8.4732 0,8.4732c0,0 -0.0154,0 -0.0154,0c-0.0876,0.7971 -0.542,1.5124 -1.2346,1.919c-1.5849,0.9304 -3.5467,-0.13 -3.7353,-1.919c0,0 -0.0147,0 -0.0147,0c0,0 0,-8.4732 0,-8.4732c0,0 0.0154,0 0.0154,0c0.0876,-0.7971 0.542,-1.5124 1.2346,-1.919z"/>
   <path fill="#f5c00b" id="svg_21" title="Path 20" d="m9377.25,9633.3444c1.5849,-0.9304 3.5467,0.13 3.7353,1.919c0,0 0.0147,0 0.0147,0c0,0 0,8.4732 0,8.4732c0,0 -0.0154,0 -0.0154,0c-0.0876,0.7971 -0.542,1.5124 -1.2346,1.919c-1.5849,0.9304 -3.5467,-0.13 -3.7353,-1.919c0,0 -0.0147,0 -0.0147,0c0,0 0,-8.4732 0,-8.4732c0,0 0.0154,0 0.0154,0c0.0876,-0.7971 0.542,-1.5124 1.2346,-1.919z"/>
   <path fill="#f5c00b" id="svg_20" title="Path 21" d="m9367.25,9633.3444c1.5849,-0.9304 3.5467,0.13 3.7353,1.919c0,0 0.0147,0 0.0147,0c0,0 0,8.4732 0,8.4732c0,0 -0.0154,0 -0.0154,0c-0.0876,0.7971 -0.542,1.5124 -1.2346,1.919c-1.5849,0.9304 -3.5467,-0.13 -3.7353,-1.919c0,0 -0.0147,0 -0.0147,0c0,0 0,-8.4732 0,-8.4732c0,0 0.0154,0 0.0154,0c0.0876,-0.7971 0.542,-1.5124 1.2346,-1.919z"/>
   <path fill="#f5c00b" id="svg_19" title="Path 22" d="m9357.25,9633.3444c1.5849,-0.9304 3.5467,0.13 3.7353,1.919c0,0 0.0147,0 0.0147,0c0,0 0,8.4732 0,8.4732c0,0 -0.0154,0 -0.0154,0c-0.0876,0.7971 -0.542,1.5124 -1.2346,1.919c-1.5849,0.9304 -3.5467,-0.13 -3.7353,-1.919c0,0 -0.0147,0 -0.0147,0c0,0 0,-8.4732 0,-8.4732c0,0 0.0154,0 0.0154,0c0.0876,-0.7971 0.542,-1.5124 1.2346,-1.919z"/>
   <path fill="#f5c00b" id="svg_18" title="Path 23" d="m9347.25,9633.3444c1.5849,-0.9304 3.5467,0.13 3.7353,1.919c0,0 0.0147,0 0.0147,0c0,0 0,8.4732 0,8.4732c0,0 -0.0154,0 -0.0154,0c-0.0876,0.7971 -0.542,1.5124 -1.2346,1.919c-1.5849,0.9304 -3.5467,-0.13 -3.7353,-1.919c0,0 -0.0147,0 -0.0147,0c0,0 0,-8.4732 0,-8.4732c0,0 0.0154,0 0.0154,0c0.0876,-0.7971 0.542,-1.5124 1.2346,-1.919z"/>
   <path fill="#f5c00b" id="svg_17" title="Path 24" d="m9337.25,9633.3444c1.5849,-0.9304 3.5467,0.13 3.7353,1.919c0,0 0.0147,0 0.0147,0c0,0 0,8.4732 0,8.4732c0,0 -0.0154,0 -0.0154,0c-0.0876,0.7971 -0.542,1.5124 -1.2346,1.919c-1.5849,0.9304 -3.5467,-0.13 -3.7353,-1.919c0,0 -0.0147,0 -0.0147,0c0,0 0,-8.4732 0,-8.4732c0,0 0.0154,0 0.0154,0c0.0876,-0.7971 0.542,-1.5124 1.2346,-1.919z"/>
   <path fill="#f5c00b" id="svg_16" title="Path 25" d="m9327.25,9633.3444c1.5849,-0.9304 3.5467,0.13 3.7353,1.919c0,0 0.0147,0 0.0147,0c0,0 0,8.4732 0,8.4732c0,0 -0.0154,0 -0.0154,0c-0.0876,0.7971 -0.542,1.5124 -1.2346,1.919c-1.5849,0.9304 -3.5467,-0.13 -3.7353,-1.919c0,0 -0.0147,0 -0.0147,0c0,0 0,-8.4732 0,-8.4732c0,0 0.0154,0 0.0154,0c0.0876,-0.7971 0.542,-1.5124 1.2346,-1.919z"/>
   <path fill="#f5c00b" id="svg_15" title="Path 26" d="m9447.25,9633.3444c1.5849,-0.9304 3.5467,0.13 3.7353,1.919c0,0 0.0147,0 0.0147,0c0,0 0,8.4732 0,8.4732c0,0 -0.0154,0 -0.0154,0c-0.0876,0.7971 -0.542,1.5124 -1.2346,1.919c-1.5849,0.9304 -3.5467,-0.13 -3.7353,-1.919c0,0 -0.0147,0 -0.0147,0c0,0 0,-8.4732 0,-8.4732c0,0 0.0154,0 0.0154,0c0.0876,-0.7971 0.542,-1.5124 1.2346,-1.919z"/>
   <path fill="#f5c00b" id="svg_14" title="Path 27" d="m9457.25,9633.3444c1.5849,-0.9304 3.5467,0.13 3.7353,1.919c0,0 0.0147,0 0.0147,0c0,0 0,8.4732 0,8.4732c0,0 -0.0154,0 -0.0154,0c-0.0876,0.7971 -0.542,1.5124 -1.2346,1.919c-1.5849,0.9304 -3.5467,-0.13 -3.7353,-1.919c0,0 -0.0147,0 -0.0147,0c0,0 0,-8.4732 0,-8.4732c0,0 0.0154,0 0.0154,0c0.0876,-0.7971 0.542,-1.5124 1.2346,-1.919z"/>
   <path fill="#f5c00b" id="svg_13" title="Path 28" d="m9467.25,9633.3444c1.5849,-0.9304 3.5467,0.13 3.7353,1.919c0,0 0.0147,0 0.0147,0c0,0 0,8.4732 0,8.4732c0,0 -0.0154,0 -0.0154,0c-0.0876,0.7971 -0.542,1.5124 -1.2346,1.919c-1.5849,0.9304 -3.5467,-0.13 -3.7353,-1.919c0,0 -0.0147,0 -0.0147,0c0,0 0,-8.4732 0,-8.4732c0,0 0.0154,0 0.0154,0c0.0876,-0.7971 0.542,-1.5124 1.2346,-1.919z"/>
   <path fill="#f5c00b" id="svg_12" title="Path 29" d="m9477.25,9633.3444c1.5849,-0.9304 3.5467,0.13 3.7353,1.919c0,0 0.0147,0 0.0147,0c0,0 0,8.4732 0,8.4732c0,0 -0.0154,0 -0.0154,0c-0.0876,0.7971 -0.542,1.5124 -1.2346,1.919c-1.5849,0.9304 -3.5467,-0.13 -3.7353,-1.919c0,0 -0.0147,0 -0.0147,0c0,0 0,-8.4732 0,-8.4732c0,0 0.0154,0 0.0154,0c0.0876,-0.7971 0.542,-1.5124 1.2346,-1.919z"/>
   <path fill="#f5c00b" id="svg_11" title="Path 30" d="m9487.25,9633.3444c1.5849,-0.9304 3.5467,0.13 3.7353,1.919c0,0 0.0147,0 0.0147,0c0,0 0,8.4732 0,8.4732c0,0 -0.0154,0 -0.0154,0c-0.0876,0.7971 -0.542,1.5124 -1.2346,1.919c-1.5849,0.9304 -3.5467,-0.13 -3.7353,-1.919c0,0 -0.0147,0 -0.0147,0c0,0 0,-8.4732 0,-8.4732c0,0 0.0154,0 0.0154,0c0.0876,-0.7971 0.542,-1.5124 1.2346,-1.919z"/>
   <path fill="#f5c00b" id="svg_10" title="Path 31" d="m9497.25,9633.3444c1.5849,-0.9304 3.5467,0.13 3.7353,1.919c0,0 0.0147,0 0.0147,0c0,0 0,8.4732 0,8.4732c0,0 -0.0154,0 -0.0154,0c-0.0876,0.7971 -0.542,1.5124 -1.2346,1.919c-1.5849,0.9304 -3.5467,-0.13 -3.7353,-1.919c0,0 -0.0147,0 -0.0147,0c0,0 0,-8.4732 0,-8.4732c0,0 0.0154,0 0.0154,0c0.0876,-0.7971 0.542,-1.5124 1.2346,-1.919z"/>
   <path fill="#f5c00b" id="svg_9" title="Path 32" d="m9507.25,9633.3444c1.5849,-0.9304 3.5467,0.13 3.7353,1.919c0,0 0.0147,0 0.0147,0c0,0 0,8.4732 0,8.4732c0,0 -0.0154,0 -0.0154,0c-0.0876,0.7971 -0.542,1.5124 -1.2346,1.919c-1.5849,0.9304 -3.5467,-0.13 -3.7353,-1.919c0,0 -0.0147,0 -0.0147,0c0,0 0,-8.4732 0,-8.4732c0,0 0.0154,0 0.0154,0c0.0876,-0.7971 0.542,-1.5124 1.2346,-1.919z"/>
   <path fill="#f5c00b" id="svg_8" title="Path 33" d="m9517.25,9633.3444c1.5849,-0.9304 3.5467,0.13 3.7353,1.919c0,0 0.0147,0 0.0147,0c0,0 0,8.4732 0,8.4732c0,0 -0.0154,0 -0.0154,0c-0.0876,0.7971 -0.542,1.5124 -1.2346,1.919c-1.5849,0.9304 -3.5467,-0.13 -3.7353,-1.919c0,0 -0.0147,0 -0.0147,0c0,0 0,-8.4732 0,-8.4732c0,0 0.0154,0 0.0154,0c0.0876,-0.7971 0.542,-1.5124 1.2346,-1.919z"/>
   <path fill="#f5c00b" id="svg_7" title="Path 34" d="m9527.25,9633.3444c1.5849,-0.9304 3.5467,0.13 3.7353,1.919c0,0 0.0147,0 0.0147,0c0,0 0,8.4732 0,8.4732c0,0 -0.0154,0 -0.0154,0c-0.0876,0.7971 -0.542,1.5124 -1.2346,1.919c-1.5849,0.9304 -3.5467,-0.13 -3.7353,-1.919c0,0 -0.0147,0 -0.0147,0c0,0 0,-8.4732 0,-8.4732c0,0 0.0154,0 0.0154,0c0.0876,-0.7971 0.542,-1.5124 1.2346,-1.919z"/>
  </g>
  <g id="svg_3" transform="matrix(1.64719, -1.38215, 1.38215, 1.64719, -24.6501, 39.3108)">
   <path fill="#a3d663" stroke-opacity="0" id="svg_88" title="Rectangle 1" d="m0.77389,19.1073l45.02158,0l0,9.28022l-45.02158,0l0,-9.28022z"/>
   <path fill="#93bc5a" stroke-opacity="0" title="Rectangle 6" d="m17.13968,29.22495c0.41803,-0.24135 0.94056,0.06034 0.94056,0.54303c0,0 0,0.75147 0,0.75147c0,0 27.71524,0 27.71524,0c0,0 0,-2.13194 0,-2.13194c0,0 -45.02158,0 -45.02158,0c0,0 0,2.13194 0,2.13194c0,0 16.05226,0 16.05226,0c0,-0.43877 0,-0.75147 0,-0.75147c0,-0.22402 0.11951,-0.43102 0.31352,-0.54303z" id="svg_87"/>
   <path fill="#494949" stroke-opacity="0" id="svg_86" title="Rectangle 7" d="m3.9091,21.67817l4.13847,0l0,4.13847l-4.13847,0l0,-4.13847z"/>
   <path fill="#494949" id="svg_85" title="Rectangle 8" d="m11.05737,21.67817l4.13847,0l0,4.13847l-4.13847,0l0,-4.13847z"/>
   <path fill="#494949" id="svg_84" title="Rectangle 9" d="m38.6472,21.67817l4.13847,0l0,4.13847l-4.13847,0l0,-4.13847z"/>
   <path fill="#494949" id="svg_83" title="Rectangle 15" d="m38.6472,21.67817l4.13847,0l0,4.13847l-4.13847,0l0,-4.13847z"/>
   <path fill="#494949" id="svg_82" title="Rectangle 18" d="m31.49893,21.67817l4.13847,0l0,4.13847l-4.13847,0l0,-4.13847z"/>
   <path fill="#494949" id="svg_81" title="Rectangle 23" d="m24.35065,21.67817l4.13847,0l0,4.13847l-4.13847,0l0,-4.13847z"/>
   <path fill="#f5c00b" title="Rectangle 28" d="m1.80851,28.68153c0.19876,-0.11668 0.44478,0.01629 0.46843,0.24065c0,0 0.00185,0 0.00185,0c0,0 0,1.06261 0,1.06261c0,0 -0.00194,0 -0.00194,0c-0.01098,0.09996 -0.06797,0.18967 -0.15482,0.24065c-0.19876,0.11668 -0.44478,-0.01629 -0.46843,-0.24065c0,0 -0.00185,0 -0.00185,0c0,0 0,-1.06261 0,-1.06261c0,0 0.00194,0 0.00194,0c0.01098,-0.09996 0.06797,-0.18967 0.15482,-0.24065z" id="svg_80"/>
   <path fill="#f5c00b" id="svg_79" title="Path 1" d="m3.06259,28.68152c0.19876,-0.11668 0.44479,0.0163 0.46844,0.24066c0,0 0.00184,0 0.00184,0c0,0 0,1.06261 0,1.06261c0,0 -0.00193,0 -0.00193,0c-0.01099,0.09996 -0.06797,0.18967 -0.15483,0.24066c-0.19876,0.11668 -0.44479,-0.0163 -0.46844,-0.24066c0,0 -0.00184,0 -0.00184,0c0,0 0,-1.06261 0,-1.06261c0,0 0.00193,0 0.00193,0c0.01099,-0.09996 0.06797,-0.18967 0.15483,-0.24066z"/>
   <path fill="#f5c00b" id="svg_78" title="Path 3" d="m4.31668,28.68152c0.19876,-0.11668 0.44479,0.0163 0.46844,0.24066c0,0 0.00184,0 0.00184,0c0,0 0,1.06261 0,1.06261c0,0 -0.00193,0 -0.00193,0c-0.01099,0.09996 -0.06797,0.18967 -0.15483,0.24066c-0.19876,0.11668 -0.44479,-0.0163 -0.46844,-0.24066c0,0 -0.00184,0 -0.00184,0c0,0 0,-1.06261 0,-1.06261c0,0 0.00193,0 0.00193,0c0.01099,-0.09996 0.06797,-0.18967 0.15483,-0.24066z"/>
   <path fill="#f5c00b" id="svg_77" title="Path 4" d="m5.57076,28.68152c0.19876,-0.11668 0.44479,0.0163 0.46844,0.24066c0,0 0.00184,0 0.00184,0c0,0 0,1.06261 0,1.06261c0,0 -0.00193,0 -0.00193,0c-0.01099,0.09996 -0.06797,0.18967 -0.15483,0.24066c-0.19876,0.11668 -0.44479,-0.0163 -0.46844,-0.24066c0,0 -0.00184,0 -0.00184,0c0,0 0,-1.06261 0,-1.06261c0,0 0.00193,0 0.00193,0c0.01099,-0.09996 0.06797,-0.18967 0.15483,-0.24066z"/>
   <path fill="#f5c00b" id="svg_76" title="Path 5" d="m6.82484,28.68152c0.19876,-0.11668 0.44479,0.0163 0.46844,0.24066c0,0 0.00184,0 0.00184,0c0,0 0,1.06261 0,1.06261c0,0 -0.00193,0 -0.00193,0c-0.01099,0.09996 -0.06797,0.18967 -0.15483,0.24066c-0.19876,0.11668 -0.44479,-0.0163 -0.46844,-0.24066c0,0 -0.00184,0 -0.00184,0c0,0 0,-1.06261 0,-1.06261c0,0 0.00193,0 0.00193,0c0.01099,-0.09996 0.06797,-0.18967 0.15483,-0.24066z"/>
   <path fill="#f5c00b" id="svg_75" title="Path 6" d="m10.58709,28.68152c0.19876,-0.11668 0.44479,0.0163 0.46844,0.24066c0,0 0.00184,0 0.00184,0c0,0 0,1.06261 0,1.06261c0,0 -0.00193,0 -0.00193,0c-0.01099,0.09996 -0.06797,0.18967 -0.15483,0.24066c-0.19876,0.11668 -0.44479,-0.0163 -0.46844,-0.24066c0,0 -0.00184,0 -0.00184,0c0,0 0,-1.06261 0,-1.06261c0,0 0.00193,0 0.00193,0c0.01099,-0.09996 0.06797,-0.18967 0.15483,-0.24066z"/>
   <path fill="#f5c00b" id="svg_74" title="Path 7" d="m9.33301,28.68152c0.19876,-0.11668 0.44479,0.0163 0.46844,0.24066c0,0 0.00184,0 0.00184,0c0,0 0,1.06261 0,1.06261c0,0 -0.00193,0 -0.00193,0c-0.01099,0.09996 -0.06797,0.18967 -0.15483,0.24066c-0.19876,0.11668 -0.44479,-0.0163 -0.46844,-0.24066c0,0 -0.00184,0 -0.00184,0c0,0 0,-1.06261 0,-1.06261c0,0 0.00193,0 0.00193,0c0.01099,-0.09996 0.06797,-0.18967 0.15483,-0.24066z"/>
   <path fill="#f5c00b" id="svg_73" title="Path 8" d="m8.07893,28.68152c0.19876,-0.11668 0.44479,0.0163 0.46844,0.24066c0,0 0.00184,0 0.00184,0c0,0 0,1.06261 0,1.06261c0,0 -0.00193,0 -0.00193,0c-0.01099,0.09996 -0.06797,0.18967 -0.15483,0.24066c-0.19876,0.11668 -0.44479,-0.0163 -0.46844,-0.24066c0,0 -0.00184,0 -0.00184,0c0,0 0,-1.06261 0,-1.06261c0,0 0.00193,0 0.00193,0c0.01099,-0.09996 0.06797,-0.18967 0.15483,-0.24066z"/>
   <path fill="#f5c00b" id="svg_72" title="Path 10" d="m15.60342,28.68152c0.19876,-0.11668 0.44479,0.0163 0.46844,0.24066c0,0 0.00184,0 0.00184,0c0,0 0,1.06261 0,1.06261c0,0 -0.00193,0 -0.00193,0c-0.01099,0.09996 -0.06797,0.18967 -0.15483,0.24066c-0.19876,0.11668 -0.44479,-0.0163 -0.46844,-0.24066c0,0 -0.00184,0 -0.00184,0c0,0 0,-1.06261 0,-1.06261c0,0 0.00193,0 0.00193,0c0.01099,-0.09996 0.06797,-0.18967 0.15483,-0.24066z"/>
   <path fill="#f5c00b" id="svg_71" title="Path 11" d="m14.34934,28.68152c0.19876,-0.11668 0.44479,0.0163 0.46844,0.24066c0,0 0.00184,0 0.00184,0c0,0 0,1.06261 0,1.06261c0,0 -0.00193,0 -0.00193,0c-0.01099,0.09996 -0.06797,0.18967 -0.15483,0.24066c-0.19876,0.11668 -0.44479,-0.0163 -0.46844,-0.24066c0,0 -0.00184,0 -0.00184,0c0,0 0,-1.06261 0,-1.06261c0,0 0.00193,0 0.00193,0c0.01099,-0.09996 0.06797,-0.18967 0.15483,-0.24066z"/>
   <path fill="#f5c00b" id="svg_70" title="Path 12" d="m13.09526,28.68152c0.19876,-0.11668 0.44479,0.0163 0.46844,0.24066c0,0 0.00184,0 0.00184,0c0,0 0,1.06261 0,1.06261c0,0 -0.00193,0 -0.00193,0c-0.01099,0.09996 -0.06797,0.18967 -0.15483,0.24066c-0.19876,0.11668 -0.44479,-0.0163 -0.46844,-0.24066c0,0 -0.00184,0 -0.00184,0c0,0 0,-1.06261 0,-1.06261c0,0 0.00193,0 0.00193,0c0.01099,-0.09996 0.06797,-0.18967 0.15483,-0.24066z"/>
   <path fill="#f5c00b" id="svg_69" title="Path 13" d="m11.84118,28.68152c0.19876,-0.11668 0.44479,0.0163 0.46844,0.24066c0,0 0.00184,0 0.00184,0c0,0 0,1.06261 0,1.06261c0,0 -0.00193,0 -0.00193,0c-0.01099,0.09996 -0.06797,0.18967 -0.15483,0.24066c-0.19876,0.11668 -0.44479,-0.0163 -0.46844,-0.24066c0,0 -0.00184,0 -0.00184,0c0,0 0,-1.06261 0,-1.06261c0,0 0.00193,0 0.00193,0c0.01099,-0.09996 0.06797,-0.18967 0.15483,-0.24066z"/>
   <path fill="#f5c00b" id="svg_68" title="Path 14" d="m33.03518,28.68152c0.19876,-0.11668 0.44479,0.0163 0.46844,0.24066c0,0 0.00184,0 0.00184,0c0,0 0,1.06261 0,1.06261c0,0 -0.00193,0 -0.00193,0c-0.01099,0.09996 -0.06797,0.18967 -0.15483,0.24066c-0.19876,0.11668 -0.44479,-0.0163 -0.46844,-0.24066c0,0 -0.00184,0 -0.00184,0c0,0 0,-1.06261 0,-1.06261c0,0 0.00193,0 0.00193,0c0.01099,-0.09996 0.06797,-0.18967 0.15483,-0.24066z"/>
   <path fill="#f5c00b" id="svg_67" title="Path 15" d="m31.7811,28.68152c0.19876,-0.11668 0.44479,0.0163 0.46844,0.24066c0,0 0.00184,0 0.00184,0c0,0 0,1.06261 0,1.06261c0,0 -0.00193,0 -0.00193,0c-0.01099,0.09996 -0.06797,0.18967 -0.15483,0.24066c-0.19876,0.11668 -0.44479,-0.0163 -0.46844,-0.24066c0,0 -0.00184,0 -0.00184,0c0,0 0,-1.06261 0,-1.06261c0,0 0.00193,0 0.00193,0c0.01099,-0.09996 0.06797,-0.18967 0.15483,-0.24066z"/>
   <path fill="#f5c00b" id="svg_66" title="Path 16" d="m30.52701,28.68152c0.19876,-0.11668 0.44479,0.0163 0.46844,0.24066c0,0 0.00184,0 0.00184,0c0,0 0,1.06261 0,1.06261c0,0 -0.00193,0 -0.00193,0c-0.01099,0.09996 -0.06797,0.18967 -0.15483,0.24066c-0.19876,0.11668 -0.44479,-0.0163 -0.46844,-0.24066c0,0 -0.00184,0 -0.00184,0c0,0 0,-1.06261 0,-1.06261c0,0 0.00193,0 0.00193,0c0.01099,-0.09996 0.06797,-0.18967 0.15483,-0.24066z"/>
   <path fill="#f5c00b" id="svg_65" title="Path 17" d="m29.27293,28.68152c0.19876,-0.11668 0.44479,0.0163 0.46844,0.24066c0,0 0.00184,0 0.00184,0c0,0 0,1.06261 0,1.06261c0,0 -0.00193,0 -0.00193,0c-0.01099,0.09996 -0.06797,0.18967 -0.15483,0.24066c-0.19876,0.11668 -0.44479,-0.0163 -0.46844,-0.24066c0,0 -0.00184,0 -0.00184,0c0,0 0,-1.06261 0,-1.06261c0,0 0.00193,0 0.00193,0c0.01099,-0.09996 0.06797,-0.18967 0.15483,-0.24066z"/>
   <path fill="#f5c00b" id="svg_64" title="Path 18" d="m28.01885,28.68152c0.19876,-0.11668 0.44479,0.0163 0.46844,0.24066c0,0 0.00184,0 0.00184,0c0,0 0,1.06261 0,1.06261c0,0 -0.00193,0 -0.00193,0c-0.01099,0.09996 -0.06797,0.18967 -0.15483,0.24066c-0.19876,0.11668 -0.44479,-0.0163 -0.46844,-0.24066c0,0 -0.00184,0 -0.00184,0c0,0 0,-1.06261 0,-1.06261c0,0 0.00193,0 0.00193,0c0.01099,-0.09996 0.06797,-0.18967 0.15483,-0.24066z"/>
   <path fill="#f5c00b" id="svg_63" title="Path 19" d="m26.76476,28.68152c0.19876,-0.11668 0.44479,0.0163 0.46844,0.24066c0,0 0.00184,0 0.00184,0c0,0 0,1.06261 0,1.06261c0,0 -0.00193,0 -0.00193,0c-0.01099,0.09996 -0.06797,0.18967 -0.15483,0.24066c-0.19876,0.11668 -0.44479,-0.0163 -0.46844,-0.24066c0,0 -0.00184,0 -0.00184,0c0,0 0,-1.06261 0,-1.06261c0,0 0.00193,0 0.00193,0c0.01099,-0.09996 0.06797,-0.18967 0.15483,-0.24066z"/>
   <path fill="#f5c00b" id="svg_62" title="Path 20" d="m25.51068,28.68152c0.19876,-0.11668 0.44479,0.0163 0.46844,0.24066c0,0 0.00184,0 0.00184,0c0,0 0,1.06261 0,1.06261c0,0 -0.00193,0 -0.00193,0c-0.01099,0.09996 -0.06797,0.18967 -0.15483,0.24066c-0.19876,0.11668 -0.44479,-0.0163 -0.46844,-0.24066c0,0 -0.00184,0 -0.00184,0c0,0 0,-1.06261 0,-1.06261c0,0 0.00193,0 0.00193,0c0.01099,-0.09996 0.06797,-0.18967 0.15483,-0.24066z"/>
   <path fill="#f5c00b" id="svg_61" title="Path 21" d="m24.2566,28.68152c0.19876,-0.11668 0.44479,0.0163 0.46844,0.24066c0,0 0.00184,0 0.00184,0c0,0 0,1.06261 0,1.06261c0,0 -0.00193,0 -0.00193,0c-0.01099,0.09996 -0.06797,0.18967 -0.15483,0.24066c-0.19876,0.11668 -0.44479,-0.0163 -0.46844,-0.24066c0,0 -0.00184,0 -0.00184,0c0,0 0,-1.06261 0,-1.06261c0,0 0.00193,0 0.00193,0c0.01099,-0.09996 0.06797,-0.18967 0.15483,-0.24066z"/>
   <path fill="#f5c00b" id="svg_60" title="Path 22" d="m23.00252,28.68152c0.19876,-0.11668 0.44479,0.0163 0.46844,0.24066c0,0 0.00184,0 0.00184,0c0,0 0,1.06261 0,1.06261c0,0 -0.00193,0 -0.00193,0c-0.01099,0.09996 -0.06797,0.18967 -0.15483,0.24066c-0.19876,0.11668 -0.44479,-0.0163 -0.46844,-0.24066c0,0 -0.00184,0 -0.00184,0c0,0 0,-1.06261 0,-1.06261c0,0 0.00193,0 0.00193,0c0.01099,-0.09996 0.06797,-0.18967 0.15483,-0.24066z"/>
   <path fill="#f5c00b" id="svg_59" title="Path 23" d="m21.74843,28.68152c0.19876,-0.11668 0.44479,0.0163 0.46844,0.24066c0,0 0.00184,0 0.00184,0c0,0 0,1.06261 0,1.06261c0,0 -0.00193,0 -0.00193,0c-0.01099,0.09996 -0.06797,0.18967 -0.15483,0.24066c-0.19876,0.11668 -0.44479,-0.0163 -0.46844,-0.24066c0,0 -0.00184,0 -0.00184,0c0,0 0,-1.06261 0,-1.06261c0,0 0.00193,0 0.00193,0c0.01099,-0.09996 0.06797,-0.18967 0.15483,-0.24066z"/>
   <path fill="#f5c00b" id="svg_58" title="Path 24" d="m20.49435,28.68152c0.19876,-0.11668 0.44479,0.0163 0.46844,0.24066c0,0 0.00184,0 0.00184,0c0,0 0,1.06261 0,1.06261c0,0 -0.00193,0 -0.00193,0c-0.01099,0.09996 -0.06797,0.18967 -0.15483,0.24066c-0.19876,0.11668 -0.44479,-0.0163 -0.46844,-0.24066c0,0 -0.00184,0 -0.00184,0c0,0 0,-1.06261 0,-1.06261c0,0 0.00193,0 0.00193,0c0.01099,-0.09996 0.06797,-0.18967 0.15483,-0.24066z"/>
   <path fill="#f5c00b" id="svg_57" title="Path 25" d="m19.24027,28.68152c0.19876,-0.11668 0.44479,0.0163 0.46844,0.24066c0,0 0.00184,0 0.00184,0c0,0 0,1.06261 0,1.06261c0,0 -0.00193,0 -0.00193,0c-0.01099,0.09996 -0.06797,0.18967 -0.15483,0.24066c-0.19876,0.11668 -0.44479,-0.0163 -0.46844,-0.24066c0,0 -0.00184,0 -0.00184,0c0,0 0,-1.06261 0,-1.06261c0,0 0.00193,0 0.00193,0c0.01099,-0.09996 0.06797,-0.18967 0.15483,-0.24066z"/>
   <path fill="#f5c00b" id="svg_56" title="Path 26" d="m34.28926,28.68152c0.19876,-0.11668 0.44479,0.0163 0.46844,0.24066c0,0 0.00184,0 0.00184,0c0,0 0,1.06261 0,1.06261c0,0 -0.00193,0 -0.00193,0c-0.01099,0.09996 -0.06797,0.18967 -0.15483,0.24066c-0.19876,0.11668 -0.44479,-0.0163 -0.46844,-0.24066c0,0 -0.00184,0 -0.00184,0c0,0 0,-1.06261 0,-1.06261c0,0 0.00193,0 0.00193,0c0.01099,-0.09996 0.06797,-0.18967 0.15483,-0.24066z"/>
   <path fill="#f5c00b" id="svg_55" title="Path 27" d="m35.54335,28.68152c0.19876,-0.11668 0.44479,0.0163 0.46844,0.24066c0,0 0.00184,0 0.00184,0c0,0 0,1.06261 0,1.06261c0,0 -0.00193,0 -0.00193,0c-0.01099,0.09996 -0.06797,0.18967 -0.15483,0.24066c-0.19876,0.11668 -0.44479,-0.0163 -0.46844,-0.24066c0,0 -0.00184,0 -0.00184,0c0,0 0,-1.06261 0,-1.06261c0,0 0.00193,0 0.00193,0c0.01099,-0.09996 0.06797,-0.18967 0.15483,-0.24066z"/>
   <path fill="#f5c00b" id="svg_54" title="Path 28" d="m36.79743,28.68152c0.19876,-0.11668 0.44479,0.0163 0.46844,0.24066c0,0 0.00184,0 0.00184,0c0,0 0,1.06261 0,1.06261c0,0 -0.00193,0 -0.00193,0c-0.01099,0.09996 -0.06797,0.18967 -0.15483,0.24066c-0.19876,0.11668 -0.44479,-0.0163 -0.46844,-0.24066c0,0 -0.00184,0 -0.00184,0c0,0 0,-1.06261 0,-1.06261c0,0 0.00193,0 0.00193,0c0.01099,-0.09996 0.06797,-0.18967 0.15483,-0.24066z"/>
   <path fill="#f5c00b" id="svg_53" title="Path 29" d="m38.05151,28.68152c0.19876,-0.11668 0.44479,0.0163 0.46844,0.24066c0,0 0.00184,0 0.00184,0c0,0 0,1.06261 0,1.06261c0,0 -0.00193,0 -0.00193,0c-0.01099,0.09996 -0.06797,0.18967 -0.15483,0.24066c-0.19876,0.11668 -0.44479,-0.0163 -0.46844,-0.24066c0,0 -0.00184,0 -0.00184,0c0,0 0,-1.06261 0,-1.06261c0,0 0.00193,0 0.00193,0c0.01099,-0.09996 0.06797,-0.18967 0.15483,-0.24066z"/>
   <path fill="#f5c00b" id="svg_52" title="Path 30" d="m39.3056,28.68152c0.19876,-0.11668 0.44479,0.0163 0.46844,0.24066c0,0 0.00184,0 0.00184,0c0,0 0,1.06261 0,1.06261c0,0 -0.00193,0 -0.00193,0c-0.01099,0.09996 -0.06797,0.18967 -0.15483,0.24066c-0.19876,0.11668 -0.44479,-0.0163 -0.46844,-0.24066c0,0 -0.00184,0 -0.00184,0c0,0 0,-1.06261 0,-1.06261c0,0 0.00193,0 0.00193,0c0.01099,-0.09996 0.06797,-0.18967 0.15483,-0.24066z"/>
   <path fill="#f5c00b" id="svg_51" title="Path 31" d="m40.55968,28.68152c0.19876,-0.11668 0.44479,0.0163 0.46844,0.24066c0,0 0.00184,0 0.00184,0c0,0 0,1.06261 0,1.06261c0,0 -0.00193,0 -0.00193,0c-0.01099,0.09996 -0.06797,0.18967 -0.15483,0.24066c-0.19876,0.11668 -0.44479,-0.0163 -0.46844,-0.24066c0,0 -0.00184,0 -0.00184,0c0,0 0,-1.06261 0,-1.06261c0,0 0.00193,0 0.00193,0c0.01099,-0.09996 0.06797,-0.18967 0.15483,-0.24066z"/>
   <path fill="#f5c00b" id="svg_50" title="Path 32" d="m41.81376,28.68152c0.19876,-0.11668 0.44479,0.0163 0.46844,0.24066c0,0 0.00184,0 0.00184,0c0,0 0,1.06261 0,1.06261c0,0 -0.00193,0 -0.00193,0c-0.01099,0.09996 -0.06797,0.18967 -0.15483,0.24066c-0.19876,0.11668 -0.44479,-0.0163 -0.46844,-0.24066c0,0 -0.00184,0 -0.00184,0c0,0 0,-1.06261 0,-1.06261c0,0 0.00193,0 0.00193,0c0.01099,-0.09996 0.06797,-0.18967 0.15483,-0.24066z"/>
   <path fill="#f5c00b" id="svg_49" title="Path 33" d="m43.06785,28.68152c0.19876,-0.11668 0.44479,0.0163 0.46844,0.24066c0,0 0.00184,0 0.00184,0c0,0 0,1.06261 0,1.06261c0,0 -0.00193,0 -0.00193,0c-0.01099,0.09996 -0.06797,0.18967 -0.15483,0.24066c-0.19876,0.11668 -0.44479,-0.0163 -0.46844,-0.24066c0,0 -0.00184,0 -0.00184,0c0,0 0,-1.06261 0,-1.06261c0,0 0.00193,0 0.00193,0c0.01099,-0.09996 0.06797,-0.18967 0.15483,-0.24066z"/>
   <path fill="#f5c00b" id="svg_48" title="Path 34" d="m44.32193,28.68152c0.19876,-0.11668 0.44479,0.0163 0.46844,0.24066c0,0 0.00184,0 0.00184,0c0,0 0,1.06261 0,1.06261c0,0 -0.00193,0 -0.00193,0c-0.01099,0.09996 -0.06797,0.18967 -0.15483,0.24066c-0.19876,0.11668 -0.44479,-0.0163 -0.46844,-0.24066c0,0 -0.00184,0 -0.00184,0c0,0 0,-1.06261 0,-1.06261c0,0 0.00193,0 0.00193,0c0.01099,-0.09996 0.06797,-0.18967 0.15483,-0.24066z"/>
  </g>
  <g stroke-width="2" id="svg_89">
   <ellipse fill="#3a3a3a" stroke="#bfbfbf" cx="48" cy="48.00002" id="svg_1" rx="24.53282" ry="24.53282"/>
   <g id="svg_6">
    <line fill="none" stroke="#bfbfbf" x1="40.45375" y1="34.83672" x2="40.45375" y2="61.16332" id="svg_5" stroke-width="4"/>
    <line fill="none" stroke="#bfbfbf" x1="55.54623" y1="34.83672" x2="55.54623" y2="61.16332" id="svg_4" stroke-width="4"/>
   </g>
  </g>
 </g>

</svg>