<svg width="48" height="48" xmlns="http://www.w3.org/2000/svg">
 <g id="Layer_1">
  <title>Layer 1</title>
  <g>
   <path d="m9180,9557l359,0l0,74l-359,0l0,-74z" title="Rectangle 1" id="svg_47" stroke-opacity="0" fill="#a3d663"/>
   <path id="svg_46" d="m9310.5,9637.67769c3.33333,-1.92451 7.5,0.48112 7.5,4.33012c0,0 0,5.99219 0,5.99219c0,0 221,0 221,0c0,0 0,-17 0,-17c0,0 -359,0 -359,0c0,0 0,17 0,17c0,0 128,0 128,0c0,-3.49873 0,-5.99219 0,-5.99219c0,-1.78633 0.95299,-3.43696 2.5,-4.33012z" title="Rectangle 6" stroke-opacity="0" fill="#93bc5a"/>
   <path d="m9205,9577.5l33,0l0,33l-33,0l0,-33z" title="Rectangle 7" id="svg_45" stroke-opacity="0" fill="#494949"/>
   <path d="m9262,9577.5l33,0l0,33l-33,0l0,-33z" title="Rectangle 8" id="svg_44" fill="#494949"/>
   <path d="m9482,9577.5l33,0l0,33l-33,0l0,-33z" title="Rectangle 9" id="svg_43" fill="#494949"/>
   <path d="m9482,9577.5l33,0l0,33l-33,0l0,-33z" title="Rectangle 15" id="svg_42" fill="#494949"/>
   <path d="m9425,9577.5l33,0l0,33l-33,0l0,-33z" title="Rectangle 18" id="svg_41" fill="#494949"/>
   <path d="m9368,9577.5l33,0l0,33l-33,0l0,-33z" title="Rectangle 23" id="svg_40" fill="#494949"/>
   <path id="svg_39" d="m9188.25,9633.34442c1.58493,-0.93042 3.54665,0.12993 3.73526,1.91897c0,0 0.01474,0 0.01474,0c0,0 0,8.47322 0,8.47322c0,0 -0.01544,0 -0.01544,0c-0.08753,0.79711 -0.54199,1.5124 -1.23456,1.91897c-1.58493,0.93042 -3.54665,-0.12993 -3.73526,-1.91897c0,0 -0.01474,0 -0.01474,0c0,0 0,-8.47322 0,-8.47322c0,0 0.01544,0 0.01544,0c0.08753,-0.79711 0.54199,-1.5124 1.23456,-1.91897z" title="Rectangle 28" fill="#f5c00b"/>
   <path d="m9198.25,9633.3444c1.5849,-0.9304 3.5467,0.13 3.7353,1.919c0,0 0.0147,0 0.0147,0c0,0 0,8.4732 0,8.4732c0,0 -0.0154,0 -0.0154,0c-0.0876,0.7971 -0.542,1.5124 -1.2346,1.919c-1.5849,0.9304 -3.5467,-0.13 -3.7353,-1.919c0,0 -0.0147,0 -0.0147,0c0,0 0,-8.4732 0,-8.4732c0,0 0.0154,0 0.0154,0c0.0876,-0.7971 0.542,-1.5124 1.2346,-1.919z" title="Path 1" id="svg_38" fill="#f5c00b"/>
   <path d="m9208.25,9633.3444c1.5849,-0.9304 3.5467,0.13 3.7353,1.919c0,0 0.0147,0 0.0147,0c0,0 0,8.4732 0,8.4732c0,0 -0.0154,0 -0.0154,0c-0.0876,0.7971 -0.542,1.5124 -1.2346,1.919c-1.5849,0.9304 -3.5467,-0.13 -3.7353,-1.919c0,0 -0.0147,0 -0.0147,0c0,0 0,-8.4732 0,-8.4732c0,0 0.0154,0 0.0154,0c0.0876,-0.7971 0.542,-1.5124 1.2346,-1.919z" title="Path 3" id="svg_37" fill="#f5c00b"/>
   <path d="m9218.25,9633.3444c1.5849,-0.9304 3.5467,0.13 3.7353,1.919c0,0 0.0147,0 0.0147,0c0,0 0,8.4732 0,8.4732c0,0 -0.0154,0 -0.0154,0c-0.0876,0.7971 -0.542,1.5124 -1.2346,1.919c-1.5849,0.9304 -3.5467,-0.13 -3.7353,-1.919c0,0 -0.0147,0 -0.0147,0c0,0 0,-8.4732 0,-8.4732c0,0 0.0154,0 0.0154,0c0.0876,-0.7971 0.542,-1.5124 1.2346,-1.919z" title="Path 4" id="svg_36" fill="#f5c00b"/>
   <path d="m9228.25,9633.3444c1.5849,-0.9304 3.5467,0.13 3.7353,1.919c0,0 0.0147,0 0.0147,0c0,0 0,8.4732 0,8.4732c0,0 -0.0154,0 -0.0154,0c-0.0876,0.7971 -0.542,1.5124 -1.2346,1.919c-1.5849,0.9304 -3.5467,-0.13 -3.7353,-1.919c0,0 -0.0147,0 -0.0147,0c0,0 0,-8.4732 0,-8.4732c0,0 0.0154,0 0.0154,0c0.0876,-0.7971 0.542,-1.5124 1.2346,-1.919z" title="Path 5" id="svg_35" fill="#f5c00b"/>
   <path d="m9258.25,9633.3444c1.5849,-0.9304 3.5467,0.13 3.7353,1.919c0,0 0.0147,0 0.0147,0c0,0 0,8.4732 0,8.4732c0,0 -0.0154,0 -0.0154,0c-0.0876,0.7971 -0.542,1.5124 -1.2346,1.919c-1.5849,0.9304 -3.5467,-0.13 -3.7353,-1.919c0,0 -0.0147,0 -0.0147,0c0,0 0,-8.4732 0,-8.4732c0,0 0.0154,0 0.0154,0c0.0876,-0.7971 0.542,-1.5124 1.2346,-1.919z" title="Path 6" id="svg_34" fill="#f5c00b"/>
   <path d="m9248.25,9633.3444c1.5849,-0.9304 3.5467,0.13 3.7353,1.919c0,0 0.0147,0 0.0147,0c0,0 0,8.4732 0,8.4732c0,0 -0.0154,0 -0.0154,0c-0.0876,0.7971 -0.542,1.5124 -1.2346,1.919c-1.5849,0.9304 -3.5467,-0.13 -3.7353,-1.919c0,0 -0.0147,0 -0.0147,0c0,0 0,-8.4732 0,-8.4732c0,0 0.0154,0 0.0154,0c0.0876,-0.7971 0.542,-1.5124 1.2346,-1.919z" title="Path 7" id="svg_33" fill="#f5c00b"/>
   <path d="m9238.25,9633.3444c1.5849,-0.9304 3.5467,0.13 3.7353,1.919c0,0 0.0147,0 0.0147,0c0,0 0,8.4732 0,8.4732c0,0 -0.0154,0 -0.0154,0c-0.0876,0.7971 -0.542,1.5124 -1.2346,1.919c-1.5849,0.9304 -3.5467,-0.13 -3.7353,-1.919c0,0 -0.0147,0 -0.0147,0c0,0 0,-8.4732 0,-8.4732c0,0 0.0154,0 0.0154,0c0.0876,-0.7971 0.542,-1.5124 1.2346,-1.919z" title="Path 8" id="svg_32" fill="#f5c00b"/>
   <path d="m9298.25,9633.3444c1.5849,-0.9304 3.5467,0.13 3.7353,1.919c0,0 0.0147,0 0.0147,0c0,0 0,8.4732 0,8.4732c0,0 -0.0154,0 -0.0154,0c-0.0876,0.7971 -0.542,1.5124 -1.2346,1.919c-1.5849,0.9304 -3.5467,-0.13 -3.7353,-1.919c0,0 -0.0147,0 -0.0147,0c0,0 0,-8.4732 0,-8.4732c0,0 0.0154,0 0.0154,0c0.0876,-0.7971 0.542,-1.5124 1.2346,-1.919z" title="Path 10" id="svg_31" fill="#f5c00b"/>
   <path d="m9288.25,9633.3444c1.5849,-0.9304 3.5467,0.13 3.7353,1.919c0,0 0.0147,0 0.0147,0c0,0 0,8.4732 0,8.4732c0,0 -0.0154,0 -0.0154,0c-0.0876,0.7971 -0.542,1.5124 -1.2346,1.919c-1.5849,0.9304 -3.5467,-0.13 -3.7353,-1.919c0,0 -0.0147,0 -0.0147,0c0,0 0,-8.4732 0,-8.4732c0,0 0.0154,0 0.0154,0c0.0876,-0.7971 0.542,-1.5124 1.2346,-1.919z" title="Path 11" id="svg_30" fill="#f5c00b"/>
   <path d="m9278.25,9633.3444c1.5849,-0.9304 3.5467,0.13 3.7353,1.919c0,0 0.0147,0 0.0147,0c0,0 0,8.4732 0,8.4732c0,0 -0.0154,0 -0.0154,0c-0.0876,0.7971 -0.542,1.5124 -1.2346,1.919c-1.5849,0.9304 -3.5467,-0.13 -3.7353,-1.919c0,0 -0.0147,0 -0.0147,0c0,0 0,-8.4732 0,-8.4732c0,0 0.0154,0 0.0154,0c0.0876,-0.7971 0.542,-1.5124 1.2346,-1.919z" title="Path 12" id="svg_29" fill="#f5c00b"/>
   <path d="m9268.25,9633.3444c1.5849,-0.9304 3.5467,0.13 3.7353,1.919c0,0 0.0147,0 0.0147,0c0,0 0,8.4732 0,8.4732c0,0 -0.0154,0 -0.0154,0c-0.0876,0.7971 -0.542,1.5124 -1.2346,1.919c-1.5849,0.9304 -3.5467,-0.13 -3.7353,-1.919c0,0 -0.0147,0 -0.0147,0c0,0 0,-8.4732 0,-8.4732c0,0 0.0154,0 0.0154,0c0.0876,-0.7971 0.542,-1.5124 1.2346,-1.919z" title="Path 13" id="svg_28" fill="#f5c00b"/>
   <path d="m9437.25,9633.3444c1.5849,-0.9304 3.5467,0.13 3.7353,1.919c0,0 0.0147,0 0.0147,0c0,0 0,8.4732 0,8.4732c0,0 -0.0154,0 -0.0154,0c-0.0876,0.7971 -0.542,1.5124 -1.2346,1.919c-1.5849,0.9304 -3.5467,-0.13 -3.7353,-1.919c0,0 -0.0147,0 -0.0147,0c0,0 0,-8.4732 0,-8.4732c0,0 0.0154,0 0.0154,0c0.0876,-0.7971 0.542,-1.5124 1.2346,-1.919z" title="Path 14" id="svg_27" fill="#f5c00b"/>
   <path d="m9427.25,9633.3444c1.5849,-0.9304 3.5467,0.13 3.7353,1.919c0,0 0.0147,0 0.0147,0c0,0 0,8.4732 0,8.4732c0,0 -0.0154,0 -0.0154,0c-0.0876,0.7971 -0.542,1.5124 -1.2346,1.919c-1.5849,0.9304 -3.5467,-0.13 -3.7353,-1.919c0,0 -0.0147,0 -0.0147,0c0,0 0,-8.4732 0,-8.4732c0,0 0.0154,0 0.0154,0c0.0876,-0.7971 0.542,-1.5124 1.2346,-1.919z" title="Path 15" id="svg_26" fill="#f5c00b"/>
   <path d="m9417.25,9633.3444c1.5849,-0.9304 3.5467,0.13 3.7353,1.919c0,0 0.0147,0 0.0147,0c0,0 0,8.4732 0,8.4732c0,0 -0.0154,0 -0.0154,0c-0.0876,0.7971 -0.542,1.5124 -1.2346,1.919c-1.5849,0.9304 -3.5467,-0.13 -3.7353,-1.919c0,0 -0.0147,0 -0.0147,0c0,0 0,-8.4732 0,-8.4732c0,0 0.0154,0 0.0154,0c0.0876,-0.7971 0.542,-1.5124 1.2346,-1.919z" title="Path 16" id="svg_25" fill="#f5c00b"/>
   <path d="m9407.25,9633.3444c1.5849,-0.9304 3.5467,0.13 3.7353,1.919c0,0 0.0147,0 0.0147,0c0,0 0,8.4732 0,8.4732c0,0 -0.0154,0 -0.0154,0c-0.0876,0.7971 -0.542,1.5124 -1.2346,1.919c-1.5849,0.9304 -3.5467,-0.13 -3.7353,-1.919c0,0 -0.0147,0 -0.0147,0c0,0 0,-8.4732 0,-8.4732c0,0 0.0154,0 0.0154,0c0.0876,-0.7971 0.542,-1.5124 1.2346,-1.919z" title="Path 17" id="svg_24" fill="#f5c00b"/>
   <path d="m9397.25,9633.3444c1.5849,-0.9304 3.5467,0.13 3.7353,1.919c0,0 0.0147,0 0.0147,0c0,0 0,8.4732 0,8.4732c0,0 -0.0154,0 -0.0154,0c-0.0876,0.7971 -0.542,1.5124 -1.2346,1.919c-1.5849,0.9304 -3.5467,-0.13 -3.7353,-1.919c0,0 -0.0147,0 -0.0147,0c0,0 0,-8.4732 0,-8.4732c0,0 0.0154,0 0.0154,0c0.0876,-0.7971 0.542,-1.5124 1.2346,-1.919z" title="Path 18" id="svg_23" fill="#f5c00b"/>
   <path d="m9387.25,9633.3444c1.5849,-0.9304 3.5467,0.13 3.7353,1.919c0,0 0.0147,0 0.0147,0c0,0 0,8.4732 0,8.4732c0,0 -0.0154,0 -0.0154,0c-0.0876,0.7971 -0.542,1.5124 -1.2346,1.919c-1.5849,0.9304 -3.5467,-0.13 -3.7353,-1.919c0,0 -0.0147,0 -0.0147,0c0,0 0,-8.4732 0,-8.4732c0,0 0.0154,0 0.0154,0c0.0876,-0.7971 0.542,-1.5124 1.2346,-1.919z" title="Path 19" id="svg_22" fill="#f5c00b"/>
   <path d="m9377.25,9633.3444c1.5849,-0.9304 3.5467,0.13 3.7353,1.919c0,0 0.0147,0 0.0147,0c0,0 0,8.4732 0,8.4732c0,0 -0.0154,0 -0.0154,0c-0.0876,0.7971 -0.542,1.5124 -1.2346,1.919c-1.5849,0.9304 -3.5467,-0.13 -3.7353,-1.919c0,0 -0.0147,0 -0.0147,0c0,0 0,-8.4732 0,-8.4732c0,0 0.0154,0 0.0154,0c0.0876,-0.7971 0.542,-1.5124 1.2346,-1.919z" title="Path 20" id="svg_21" fill="#f5c00b"/>
   <path d="m9367.25,9633.3444c1.5849,-0.9304 3.5467,0.13 3.7353,1.919c0,0 0.0147,0 0.0147,0c0,0 0,8.4732 0,8.4732c0,0 -0.0154,0 -0.0154,0c-0.0876,0.7971 -0.542,1.5124 -1.2346,1.919c-1.5849,0.9304 -3.5467,-0.13 -3.7353,-1.919c0,0 -0.0147,0 -0.0147,0c0,0 0,-8.4732 0,-8.4732c0,0 0.0154,0 0.0154,0c0.0876,-0.7971 0.542,-1.5124 1.2346,-1.919z" title="Path 21" id="svg_20" fill="#f5c00b"/>
   <path d="m9357.25,9633.3444c1.5849,-0.9304 3.5467,0.13 3.7353,1.919c0,0 0.0147,0 0.0147,0c0,0 0,8.4732 0,8.4732c0,0 -0.0154,0 -0.0154,0c-0.0876,0.7971 -0.542,1.5124 -1.2346,1.919c-1.5849,0.9304 -3.5467,-0.13 -3.7353,-1.919c0,0 -0.0147,0 -0.0147,0c0,0 0,-8.4732 0,-8.4732c0,0 0.0154,0 0.0154,0c0.0876,-0.7971 0.542,-1.5124 1.2346,-1.919z" title="Path 22" id="svg_19" fill="#f5c00b"/>
   <path d="m9347.25,9633.3444c1.5849,-0.9304 3.5467,0.13 3.7353,1.919c0,0 0.0147,0 0.0147,0c0,0 0,8.4732 0,8.4732c0,0 -0.0154,0 -0.0154,0c-0.0876,0.7971 -0.542,1.5124 -1.2346,1.919c-1.5849,0.9304 -3.5467,-0.13 -3.7353,-1.919c0,0 -0.0147,0 -0.0147,0c0,0 0,-8.4732 0,-8.4732c0,0 0.0154,0 0.0154,0c0.0876,-0.7971 0.542,-1.5124 1.2346,-1.919z" title="Path 23" id="svg_18" fill="#f5c00b"/>
   <path d="m9337.25,9633.3444c1.5849,-0.9304 3.5467,0.13 3.7353,1.919c0,0 0.0147,0 0.0147,0c0,0 0,8.4732 0,8.4732c0,0 -0.0154,0 -0.0154,0c-0.0876,0.7971 -0.542,1.5124 -1.2346,1.919c-1.5849,0.9304 -3.5467,-0.13 -3.7353,-1.919c0,0 -0.0147,0 -0.0147,0c0,0 0,-8.4732 0,-8.4732c0,0 0.0154,0 0.0154,0c0.0876,-0.7971 0.542,-1.5124 1.2346,-1.919z" title="Path 24" id="svg_17" fill="#f5c00b"/>
   <path d="m9327.25,9633.3444c1.5849,-0.9304 3.5467,0.13 3.7353,1.919c0,0 0.0147,0 0.0147,0c0,0 0,8.4732 0,8.4732c0,0 -0.0154,0 -0.0154,0c-0.0876,0.7971 -0.542,1.5124 -1.2346,1.919c-1.5849,0.9304 -3.5467,-0.13 -3.7353,-1.919c0,0 -0.0147,0 -0.0147,0c0,0 0,-8.4732 0,-8.4732c0,0 0.0154,0 0.0154,0c0.0876,-0.7971 0.542,-1.5124 1.2346,-1.919z" title="Path 25" id="svg_16" fill="#f5c00b"/>
   <path d="m9447.25,9633.3444c1.5849,-0.9304 3.5467,0.13 3.7353,1.919c0,0 0.0147,0 0.0147,0c0,0 0,8.4732 0,8.4732c0,0 -0.0154,0 -0.0154,0c-0.0876,0.7971 -0.542,1.5124 -1.2346,1.919c-1.5849,0.9304 -3.5467,-0.13 -3.7353,-1.919c0,0 -0.0147,0 -0.0147,0c0,0 0,-8.4732 0,-8.4732c0,0 0.0154,0 0.0154,0c0.0876,-0.7971 0.542,-1.5124 1.2346,-1.919z" title="Path 26" id="svg_15" fill="#f5c00b"/>
   <path d="m9457.25,9633.3444c1.5849,-0.9304 3.5467,0.13 3.7353,1.919c0,0 0.0147,0 0.0147,0c0,0 0,8.4732 0,8.4732c0,0 -0.0154,0 -0.0154,0c-0.0876,0.7971 -0.542,1.5124 -1.2346,1.919c-1.5849,0.9304 -3.5467,-0.13 -3.7353,-1.919c0,0 -0.0147,0 -0.0147,0c0,0 0,-8.4732 0,-8.4732c0,0 0.0154,0 0.0154,0c0.0876,-0.7971 0.542,-1.5124 1.2346,-1.919z" title="Path 27" id="svg_14" fill="#f5c00b"/>
   <path d="m9467.25,9633.3444c1.5849,-0.9304 3.5467,0.13 3.7353,1.919c0,0 0.0147,0 0.0147,0c0,0 0,8.4732 0,8.4732c0,0 -0.0154,0 -0.0154,0c-0.0876,0.7971 -0.542,1.5124 -1.2346,1.919c-1.5849,0.9304 -3.5467,-0.13 -3.7353,-1.919c0,0 -0.0147,0 -0.0147,0c0,0 0,-8.4732 0,-8.4732c0,0 0.0154,0 0.0154,0c0.0876,-0.7971 0.542,-1.5124 1.2346,-1.919z" title="Path 28" id="svg_13" fill="#f5c00b"/>
   <path d="m9477.25,9633.3444c1.5849,-0.9304 3.5467,0.13 3.7353,1.919c0,0 0.0147,0 0.0147,0c0,0 0,8.4732 0,8.4732c0,0 -0.0154,0 -0.0154,0c-0.0876,0.7971 -0.542,1.5124 -1.2346,1.919c-1.5849,0.9304 -3.5467,-0.13 -3.7353,-1.919c0,0 -0.0147,0 -0.0147,0c0,0 0,-8.4732 0,-8.4732c0,0 0.0154,0 0.0154,0c0.0876,-0.7971 0.542,-1.5124 1.2346,-1.919z" title="Path 29" id="svg_12" fill="#f5c00b"/>
   <path d="m9487.25,9633.3444c1.5849,-0.9304 3.5467,0.13 3.7353,1.919c0,0 0.0147,0 0.0147,0c0,0 0,8.4732 0,8.4732c0,0 -0.0154,0 -0.0154,0c-0.0876,0.7971 -0.542,1.5124 -1.2346,1.919c-1.5849,0.9304 -3.5467,-0.13 -3.7353,-1.919c0,0 -0.0147,0 -0.0147,0c0,0 0,-8.4732 0,-8.4732c0,0 0.0154,0 0.0154,0c0.0876,-0.7971 0.542,-1.5124 1.2346,-1.919z" title="Path 30" id="svg_11" fill="#f5c00b"/>
   <path d="m9497.25,9633.3444c1.5849,-0.9304 3.5467,0.13 3.7353,1.919c0,0 0.0147,0 0.0147,0c0,0 0,8.4732 0,8.4732c0,0 -0.0154,0 -0.0154,0c-0.0876,0.7971 -0.542,1.5124 -1.2346,1.919c-1.5849,0.9304 -3.5467,-0.13 -3.7353,-1.919c0,0 -0.0147,0 -0.0147,0c0,0 0,-8.4732 0,-8.4732c0,0 0.0154,0 0.0154,0c0.0876,-0.7971 0.542,-1.5124 1.2346,-1.919z" title="Path 31" id="svg_10" fill="#f5c00b"/>
   <path d="m9507.25,9633.3444c1.5849,-0.9304 3.5467,0.13 3.7353,1.919c0,0 0.0147,0 0.0147,0c0,0 0,8.4732 0,8.4732c0,0 -0.0154,0 -0.0154,0c-0.0876,0.7971 -0.542,1.5124 -1.2346,1.919c-1.5849,0.9304 -3.5467,-0.13 -3.7353,-1.919c0,0 -0.0147,0 -0.0147,0c0,0 0,-8.4732 0,-8.4732c0,0 0.0154,0 0.0154,0c0.0876,-0.7971 0.542,-1.5124 1.2346,-1.919z" title="Path 32" id="svg_9" fill="#f5c00b"/>
   <path d="m9517.25,9633.3444c1.5849,-0.9304 3.5467,0.13 3.7353,1.919c0,0 0.0147,0 0.0147,0c0,0 0,8.4732 0,8.4732c0,0 -0.0154,0 -0.0154,0c-0.0876,0.7971 -0.542,1.5124 -1.2346,1.919c-1.5849,0.9304 -3.5467,-0.13 -3.7353,-1.919c0,0 -0.0147,0 -0.0147,0c0,0 0,-8.4732 0,-8.4732c0,0 0.0154,0 0.0154,0c0.0876,-0.7971 0.542,-1.5124 1.2346,-1.919z" title="Path 33" id="svg_8" fill="#f5c00b"/>
   <path d="m9527.25,9633.3444c1.5849,-0.9304 3.5467,0.13 3.7353,1.919c0,0 0.0147,0 0.0147,0c0,0 0,8.4732 0,8.4732c0,0 -0.0154,0 -0.0154,0c-0.0876,0.7971 -0.542,1.5124 -1.2346,1.919c-1.5849,0.9304 -3.5467,-0.13 -3.7353,-1.919c0,0 -0.0147,0 -0.0147,0c0,0 0,-8.4732 0,-8.4732c0,0 0.0154,0 0.0154,0c0.0876,-0.7971 0.542,-1.5124 1.2346,-1.919z" title="Path 34" id="svg_7" fill="#f5c00b"/>

  </g>
  <g transform="rotate(-40, 24, 24)">
   <path d="m1.48921,18.29392l45.02158,0l0,9.28022l-45.02158,0l0,-9.28022z" title="Rectangle 1" id="svg_88" stroke-opacity="0" fill="#a3d663"/>
   <path id="svg_87" d="m17.855,28.41157c0.41803,-0.24135 0.94056,0.06034 0.94056,0.54303c0,0 0,0.75147 0,0.75147c0,0 27.71524,0 27.71524,0c0,0 0,-2.13194 0,-2.13194c0,0 -45.02158,0 -45.02158,0c0,0 0,2.13194 0,2.13194c0,0 16.05226,0 16.05226,0c0,-0.43877 0,-0.75147 0,-0.75147c0,-0.22402 0.11951,-0.43102 0.31352,-0.54303z" title="Rectangle 6" stroke-opacity="0" fill="#93bc5a"/>
   <path d="m4.62442,20.86479l4.13847,0l0,4.13847l-4.13847,0l0,-4.13847z" title="Rectangle 7" id="svg_86" stroke-opacity="0" fill="#494949"/>
   <path d="m11.77269,20.86479l4.13847,0l0,4.13847l-4.13847,0l0,-4.13847z" title="Rectangle 8" id="svg_85" fill="#494949"/>
   <path d="m39.36252,20.86479l4.13847,0l0,4.13847l-4.13847,0l0,-4.13847z" title="Rectangle 9" id="svg_84" fill="#494949"/>
   <path d="m39.36252,20.86479l4.13847,0l0,4.13847l-4.13847,0l0,-4.13847z" title="Rectangle 15" id="svg_83" fill="#494949"/>
   <path d="m32.21425,20.86479l4.13847,0l0,4.13847l-4.13847,0l0,-4.13847z" title="Rectangle 18" id="svg_82" fill="#494949"/>
   <path d="m25.06597,20.86479l4.13847,0l0,4.13847l-4.13847,0l0,-4.13847z" title="Rectangle 23" id="svg_81" fill="#494949"/>
   <path id="svg_80" d="m2.52383,27.86815c0.19876,-0.11668 0.44478,0.01629 0.46843,0.24065c0,0 0.00185,0 0.00185,0c0,0 0,1.06261 0,1.06261c0,0 -0.00194,0 -0.00194,0c-0.01098,0.09996 -0.06797,0.18967 -0.15482,0.24065c-0.19876,0.11668 -0.44478,-0.01629 -0.46843,-0.24065c0,0 -0.00185,0 -0.00185,0c0,0 0,-1.06261 0,-1.06261c0,0 0.00194,0 0.00194,0c0.01098,-0.09996 0.06797,-0.18967 0.15482,-0.24065z" title="Rectangle 28" fill="#f5c00b"/>
   <path d="m3.77791,27.86814c0.19876,-0.11668 0.44479,0.0163 0.46844,0.24066c0,0 0.00184,0 0.00184,0c0,0 0,1.06261 0,1.06261c0,0 -0.00193,0 -0.00193,0c-0.01099,0.09996 -0.06797,0.18967 -0.15483,0.24066c-0.19876,0.11668 -0.44479,-0.0163 -0.46844,-0.24066c0,0 -0.00184,0 -0.00184,0c0,0 0,-1.06261 0,-1.06261c0,0 0.00193,0 0.00193,0c0.01099,-0.09996 0.06797,-0.18967 0.15483,-0.24066z" title="Path 1" id="svg_79" fill="#f5c00b"/>
   <path d="m5.032,27.86814c0.19876,-0.11668 0.44479,0.0163 0.46844,0.24066c0,0 0.00184,0 0.00184,0c0,0 0,1.06261 0,1.06261c0,0 -0.00193,0 -0.00193,0c-0.01099,0.09996 -0.06797,0.18967 -0.15483,0.24066c-0.19876,0.11668 -0.44479,-0.0163 -0.46844,-0.24066c0,0 -0.00184,0 -0.00184,0c0,0 0,-1.06261 0,-1.06261c0,0 0.00193,0 0.00193,0c0.01099,-0.09996 0.06797,-0.18967 0.15483,-0.24066z" title="Path 3" id="svg_78" fill="#f5c00b"/>
   <path d="m6.28608,27.86814c0.19876,-0.11668 0.44479,0.0163 0.46844,0.24066c0,0 0.00184,0 0.00184,0c0,0 0,1.06261 0,1.06261c0,0 -0.00193,0 -0.00193,0c-0.01099,0.09996 -0.06797,0.18967 -0.15483,0.24066c-0.19876,0.11668 -0.44479,-0.0163 -0.46844,-0.24066c0,0 -0.00184,0 -0.00184,0c0,0 0,-1.06261 0,-1.06261c0,0 0.00193,0 0.00193,0c0.01099,-0.09996 0.06797,-0.18967 0.15483,-0.24066z" title="Path 4" id="svg_77" fill="#f5c00b"/>
   <path d="m7.54016,27.86814c0.19876,-0.11668 0.44479,0.0163 0.46844,0.24066c0,0 0.00184,0 0.00184,0c0,0 0,1.06261 0,1.06261c0,0 -0.00193,0 -0.00193,0c-0.01099,0.09996 -0.06797,0.18967 -0.15483,0.24066c-0.19876,0.11668 -0.44479,-0.0163 -0.46844,-0.24066c0,0 -0.00184,0 -0.00184,0c0,0 0,-1.06261 0,-1.06261c0,0 0.00193,0 0.00193,0c0.01099,-0.09996 0.06797,-0.18967 0.15483,-0.24066z" title="Path 5" id="svg_76" fill="#f5c00b"/>
   <path d="m11.30241,27.86814c0.19876,-0.11668 0.44479,0.0163 0.46844,0.24066c0,0 0.00184,0 0.00184,0c0,0 0,1.06261 0,1.06261c0,0 -0.00193,0 -0.00193,0c-0.01099,0.09996 -0.06797,0.18967 -0.15483,0.24066c-0.19876,0.11668 -0.44479,-0.0163 -0.46844,-0.24066c0,0 -0.00184,0 -0.00184,0c0,0 0,-1.06261 0,-1.06261c0,0 0.00193,0 0.00193,0c0.01099,-0.09996 0.06797,-0.18967 0.15483,-0.24066z" title="Path 6" id="svg_75" fill="#f5c00b"/>
   <path d="m10.04833,27.86814c0.19876,-0.11668 0.44479,0.0163 0.46844,0.24066c0,0 0.00184,0 0.00184,0c0,0 0,1.06261 0,1.06261c0,0 -0.00193,0 -0.00193,0c-0.01099,0.09996 -0.06797,0.18967 -0.15483,0.24066c-0.19876,0.11668 -0.44479,-0.0163 -0.46844,-0.24066c0,0 -0.00184,0 -0.00184,0c0,0 0,-1.06261 0,-1.06261c0,0 0.00193,0 0.00193,0c0.01099,-0.09996 0.06797,-0.18967 0.15483,-0.24066z" title="Path 7" id="svg_74" fill="#f5c00b"/>
   <path d="m8.79425,27.86814c0.19876,-0.11668 0.44479,0.0163 0.46844,0.24066c0,0 0.00184,0 0.00184,0c0,0 0,1.06261 0,1.06261c0,0 -0.00193,0 -0.00193,0c-0.01099,0.09996 -0.06797,0.18967 -0.15483,0.24066c-0.19876,0.11668 -0.44479,-0.0163 -0.46844,-0.24066c0,0 -0.00184,0 -0.00184,0c0,0 0,-1.06261 0,-1.06261c0,0 0.00193,0 0.00193,0c0.01099,-0.09996 0.06797,-0.18967 0.15483,-0.24066z" title="Path 8" id="svg_73" fill="#f5c00b"/>
   <path d="m16.31874,27.86814c0.19876,-0.11668 0.44479,0.0163 0.46844,0.24066c0,0 0.00184,0 0.00184,0c0,0 0,1.06261 0,1.06261c0,0 -0.00193,0 -0.00193,0c-0.01099,0.09996 -0.06797,0.18967 -0.15483,0.24066c-0.19876,0.11668 -0.44479,-0.0163 -0.46844,-0.24066c0,0 -0.00184,0 -0.00184,0c0,0 0,-1.06261 0,-1.06261c0,0 0.00193,0 0.00193,0c0.01099,-0.09996 0.06797,-0.18967 0.15483,-0.24066z" title="Path 10" id="svg_72" fill="#f5c00b"/>
   <path d="m15.06466,27.86814c0.19876,-0.11668 0.44479,0.0163 0.46844,0.24066c0,0 0.00184,0 0.00184,0c0,0 0,1.06261 0,1.06261c0,0 -0.00193,0 -0.00193,0c-0.01099,0.09996 -0.06797,0.18967 -0.15483,0.24066c-0.19876,0.11668 -0.44479,-0.0163 -0.46844,-0.24066c0,0 -0.00184,0 -0.00184,0c0,0 0,-1.06261 0,-1.06261c0,0 0.00193,0 0.00193,0c0.01099,-0.09996 0.06797,-0.18967 0.15483,-0.24066z" title="Path 11" id="svg_71" fill="#f5c00b"/>
   <path d="m13.81058,27.86814c0.19876,-0.11668 0.44479,0.0163 0.46844,0.24066c0,0 0.00184,0 0.00184,0c0,0 0,1.06261 0,1.06261c0,0 -0.00193,0 -0.00193,0c-0.01099,0.09996 -0.06797,0.18967 -0.15483,0.24066c-0.19876,0.11668 -0.44479,-0.0163 -0.46844,-0.24066c0,0 -0.00184,0 -0.00184,0c0,0 0,-1.06261 0,-1.06261c0,0 0.00193,0 0.00193,0c0.01099,-0.09996 0.06797,-0.18967 0.15483,-0.24066z" title="Path 12" id="svg_70" fill="#f5c00b"/>
   <path d="m12.5565,27.86814c0.19876,-0.11668 0.44479,0.0163 0.46844,0.24066c0,0 0.00184,0 0.00184,0c0,0 0,1.06261 0,1.06261c0,0 -0.00193,0 -0.00193,0c-0.01099,0.09996 -0.06797,0.18967 -0.15483,0.24066c-0.19876,0.11668 -0.44479,-0.0163 -0.46844,-0.24066c0,0 -0.00184,0 -0.00184,0c0,0 0,-1.06261 0,-1.06261c0,0 0.00193,0 0.00193,0c0.01099,-0.09996 0.06797,-0.18967 0.15483,-0.24066z" title="Path 13" id="svg_69" fill="#f5c00b"/>
   <path d="m33.7505,27.86814c0.19876,-0.11668 0.44479,0.0163 0.46844,0.24066c0,0 0.00184,0 0.00184,0c0,0 0,1.06261 0,1.06261c0,0 -0.00193,0 -0.00193,0c-0.01099,0.09996 -0.06797,0.18967 -0.15483,0.24066c-0.19876,0.11668 -0.44479,-0.0163 -0.46844,-0.24066c0,0 -0.00184,0 -0.00184,0c0,0 0,-1.06261 0,-1.06261c0,0 0.00193,0 0.00193,0c0.01099,-0.09996 0.06797,-0.18967 0.15483,-0.24066z" title="Path 14" id="svg_68" fill="#f5c00b"/>
   <path d="m32.49642,27.86814c0.19876,-0.11668 0.44479,0.0163 0.46844,0.24066c0,0 0.00184,0 0.00184,0c0,0 0,1.06261 0,1.06261c0,0 -0.00193,0 -0.00193,0c-0.01099,0.09996 -0.06797,0.18967 -0.15483,0.24066c-0.19876,0.11668 -0.44479,-0.0163 -0.46844,-0.24066c0,0 -0.00184,0 -0.00184,0c0,0 0,-1.06261 0,-1.06261c0,0 0.00193,0 0.00193,0c0.01099,-0.09996 0.06797,-0.18967 0.15483,-0.24066z" title="Path 15" id="svg_67" fill="#f5c00b"/>
   <path d="m31.24233,27.86814c0.19876,-0.11668 0.44479,0.0163 0.46844,0.24066c0,0 0.00184,0 0.00184,0c0,0 0,1.06261 0,1.06261c0,0 -0.00193,0 -0.00193,0c-0.01099,0.09996 -0.06797,0.18967 -0.15483,0.24066c-0.19876,0.11668 -0.44479,-0.0163 -0.46844,-0.24066c0,0 -0.00184,0 -0.00184,0c0,0 0,-1.06261 0,-1.06261c0,0 0.00193,0 0.00193,0c0.01099,-0.09996 0.06797,-0.18967 0.15483,-0.24066z" title="Path 16" id="svg_66" fill="#f5c00b"/>
   <path d="m29.98825,27.86814c0.19876,-0.11668 0.44479,0.0163 0.46844,0.24066c0,0 0.00184,0 0.00184,0c0,0 0,1.06261 0,1.06261c0,0 -0.00193,0 -0.00193,0c-0.01099,0.09996 -0.06797,0.18967 -0.15483,0.24066c-0.19876,0.11668 -0.44479,-0.0163 -0.46844,-0.24066c0,0 -0.00184,0 -0.00184,0c0,0 0,-1.06261 0,-1.06261c0,0 0.00193,0 0.00193,0c0.01099,-0.09996 0.06797,-0.18967 0.15483,-0.24066z" title="Path 17" id="svg_65" fill="#f5c00b"/>
   <path d="m28.73417,27.86814c0.19876,-0.11668 0.44479,0.0163 0.46844,0.24066c0,0 0.00184,0 0.00184,0c0,0 0,1.06261 0,1.06261c0,0 -0.00193,0 -0.00193,0c-0.01099,0.09996 -0.06797,0.18967 -0.15483,0.24066c-0.19876,0.11668 -0.44479,-0.0163 -0.46844,-0.24066c0,0 -0.00184,0 -0.00184,0c0,0 0,-1.06261 0,-1.06261c0,0 0.00193,0 0.00193,0c0.01099,-0.09996 0.06797,-0.18967 0.15483,-0.24066z" title="Path 18" id="svg_64" fill="#f5c00b"/>
   <path d="m27.48008,27.86814c0.19876,-0.11668 0.44479,0.0163 0.46844,0.24066c0,0 0.00184,0 0.00184,0c0,0 0,1.06261 0,1.06261c0,0 -0.00193,0 -0.00193,0c-0.01099,0.09996 -0.06797,0.18967 -0.15483,0.24066c-0.19876,0.11668 -0.44479,-0.0163 -0.46844,-0.24066c0,0 -0.00184,0 -0.00184,0c0,0 0,-1.06261 0,-1.06261c0,0 0.00193,0 0.00193,0c0.01099,-0.09996 0.06797,-0.18967 0.15483,-0.24066z" title="Path 19" id="svg_63" fill="#f5c00b"/>
   <path d="m26.226,27.86814c0.19876,-0.11668 0.44479,0.0163 0.46844,0.24066c0,0 0.00184,0 0.00184,0c0,0 0,1.06261 0,1.06261c0,0 -0.00193,0 -0.00193,0c-0.01099,0.09996 -0.06797,0.18967 -0.15483,0.24066c-0.19876,0.11668 -0.44479,-0.0163 -0.46844,-0.24066c0,0 -0.00184,0 -0.00184,0c0,0 0,-1.06261 0,-1.06261c0,0 0.00193,0 0.00193,0c0.01099,-0.09996 0.06797,-0.18967 0.15483,-0.24066z" title="Path 20" id="svg_62" fill="#f5c00b"/>
   <path d="m24.97192,27.86814c0.19876,-0.11668 0.44479,0.0163 0.46844,0.24066c0,0 0.00184,0 0.00184,0c0,0 0,1.06261 0,1.06261c0,0 -0.00193,0 -0.00193,0c-0.01099,0.09996 -0.06797,0.18967 -0.15483,0.24066c-0.19876,0.11668 -0.44479,-0.0163 -0.46844,-0.24066c0,0 -0.00184,0 -0.00184,0c0,0 0,-1.06261 0,-1.06261c0,0 0.00193,0 0.00193,0c0.01099,-0.09996 0.06797,-0.18967 0.15483,-0.24066z" title="Path 21" id="svg_61" fill="#f5c00b"/>
   <path d="m23.71784,27.86814c0.19876,-0.11668 0.44479,0.0163 0.46844,0.24066c0,0 0.00184,0 0.00184,0c0,0 0,1.06261 0,1.06261c0,0 -0.00193,0 -0.00193,0c-0.01099,0.09996 -0.06797,0.18967 -0.15483,0.24066c-0.19876,0.11668 -0.44479,-0.0163 -0.46844,-0.24066c0,0 -0.00184,0 -0.00184,0c0,0 0,-1.06261 0,-1.06261c0,0 0.00193,0 0.00193,0c0.01099,-0.09996 0.06797,-0.18967 0.15483,-0.24066z" title="Path 22" id="svg_60" fill="#f5c00b"/>
   <path d="m22.46375,27.86814c0.19876,-0.11668 0.44479,0.0163 0.46844,0.24066c0,0 0.00184,0 0.00184,0c0,0 0,1.06261 0,1.06261c0,0 -0.00193,0 -0.00193,0c-0.01099,0.09996 -0.06797,0.18967 -0.15483,0.24066c-0.19876,0.11668 -0.44479,-0.0163 -0.46844,-0.24066c0,0 -0.00184,0 -0.00184,0c0,0 0,-1.06261 0,-1.06261c0,0 0.00193,0 0.00193,0c0.01099,-0.09996 0.06797,-0.18967 0.15483,-0.24066z" title="Path 23" id="svg_59" fill="#f5c00b"/>
   <path d="m21.20967,27.86814c0.19876,-0.11668 0.44479,0.0163 0.46844,0.24066c0,0 0.00184,0 0.00184,0c0,0 0,1.06261 0,1.06261c0,0 -0.00193,0 -0.00193,0c-0.01099,0.09996 -0.06797,0.18967 -0.15483,0.24066c-0.19876,0.11668 -0.44479,-0.0163 -0.46844,-0.24066c0,0 -0.00184,0 -0.00184,0c0,0 0,-1.06261 0,-1.06261c0,0 0.00193,0 0.00193,0c0.01099,-0.09996 0.06797,-0.18967 0.15483,-0.24066z" title="Path 24" id="svg_58" fill="#f5c00b"/>
   <path d="m19.95559,27.86814c0.19876,-0.11668 0.44479,0.0163 0.46844,0.24066c0,0 0.00184,0 0.00184,0c0,0 0,1.06261 0,1.06261c0,0 -0.00193,0 -0.00193,0c-0.01099,0.09996 -0.06797,0.18967 -0.15483,0.24066c-0.19876,0.11668 -0.44479,-0.0163 -0.46844,-0.24066c0,0 -0.00184,0 -0.00184,0c0,0 0,-1.06261 0,-1.06261c0,0 0.00193,0 0.00193,0c0.01099,-0.09996 0.06797,-0.18967 0.15483,-0.24066z" title="Path 25" id="svg_57" fill="#f5c00b"/>
   <path d="m35.00458,27.86814c0.19876,-0.11668 0.44479,0.0163 0.46844,0.24066c0,0 0.00184,0 0.00184,0c0,0 0,1.06261 0,1.06261c0,0 -0.00193,0 -0.00193,0c-0.01099,0.09996 -0.06797,0.18967 -0.15483,0.24066c-0.19876,0.11668 -0.44479,-0.0163 -0.46844,-0.24066c0,0 -0.00184,0 -0.00184,0c0,0 0,-1.06261 0,-1.06261c0,0 0.00193,0 0.00193,0c0.01099,-0.09996 0.06797,-0.18967 0.15483,-0.24066z" title="Path 26" id="svg_56" fill="#f5c00b"/>
   <path d="m36.25867,27.86814c0.19876,-0.11668 0.44479,0.0163 0.46844,0.24066c0,0 0.00184,0 0.00184,0c0,0 0,1.06261 0,1.06261c0,0 -0.00193,0 -0.00193,0c-0.01099,0.09996 -0.06797,0.18967 -0.15483,0.24066c-0.19876,0.11668 -0.44479,-0.0163 -0.46844,-0.24066c0,0 -0.00184,0 -0.00184,0c0,0 0,-1.06261 0,-1.06261c0,0 0.00193,0 0.00193,0c0.01099,-0.09996 0.06797,-0.18967 0.15483,-0.24066z" title="Path 27" id="svg_55" fill="#f5c00b"/>
   <path d="m37.51275,27.86814c0.19876,-0.11668 0.44479,0.0163 0.46844,0.24066c0,0 0.00184,0 0.00184,0c0,0 0,1.06261 0,1.06261c0,0 -0.00193,0 -0.00193,0c-0.01099,0.09996 -0.06797,0.18967 -0.15483,0.24066c-0.19876,0.11668 -0.44479,-0.0163 -0.46844,-0.24066c0,0 -0.00184,0 -0.00184,0c0,0 0,-1.06261 0,-1.06261c0,0 0.00193,0 0.00193,0c0.01099,-0.09996 0.06797,-0.18967 0.15483,-0.24066z" title="Path 28" id="svg_54" fill="#f5c00b"/>
   <path d="m38.76683,27.86814c0.19876,-0.11668 0.44479,0.0163 0.46844,0.24066c0,0 0.00184,0 0.00184,0c0,0 0,1.06261 0,1.06261c0,0 -0.00193,0 -0.00193,0c-0.01099,0.09996 -0.06797,0.18967 -0.15483,0.24066c-0.19876,0.11668 -0.44479,-0.0163 -0.46844,-0.24066c0,0 -0.00184,0 -0.00184,0c0,0 0,-1.06261 0,-1.06261c0,0 0.00193,0 0.00193,0c0.01099,-0.09996 0.06797,-0.18967 0.15483,-0.24066z" title="Path 29" id="svg_53" fill="#f5c00b"/>
   <path d="m40.02092,27.86814c0.19876,-0.11668 0.44479,0.0163 0.46844,0.24066c0,0 0.00184,0 0.00184,0c0,0 0,1.06261 0,1.06261c0,0 -0.00193,0 -0.00193,0c-0.01099,0.09996 -0.06797,0.18967 -0.15483,0.24066c-0.19876,0.11668 -0.44479,-0.0163 -0.46844,-0.24066c0,0 -0.00184,0 -0.00184,0c0,0 0,-1.06261 0,-1.06261c0,0 0.00193,0 0.00193,0c0.01099,-0.09996 0.06797,-0.18967 0.15483,-0.24066z" title="Path 30" id="svg_52" fill="#f5c00b"/>
   <path d="m41.275,27.86814c0.19876,-0.11668 0.44479,0.0163 0.46844,0.24066c0,0 0.00184,0 0.00184,0c0,0 0,1.06261 0,1.06261c0,0 -0.00193,0 -0.00193,0c-0.01099,0.09996 -0.06797,0.18967 -0.15483,0.24066c-0.19876,0.11668 -0.44479,-0.0163 -0.46844,-0.24066c0,0 -0.00184,0 -0.00184,0c0,0 0,-1.06261 0,-1.06261c0,0 0.00193,0 0.00193,0c0.01099,-0.09996 0.06797,-0.18967 0.15483,-0.24066z" title="Path 31" id="svg_51" fill="#f5c00b"/>
   <path d="m42.52908,27.86814c0.19876,-0.11668 0.44479,0.0163 0.46844,0.24066c0,0 0.00184,0 0.00184,0c0,0 0,1.06261 0,1.06261c0,0 -0.00193,0 -0.00193,0c-0.01099,0.09996 -0.06797,0.18967 -0.15483,0.24066c-0.19876,0.11668 -0.44479,-0.0163 -0.46844,-0.24066c0,0 -0.00184,0 -0.00184,0c0,0 0,-1.06261 0,-1.06261c0,0 0.00193,0 0.00193,0c0.01099,-0.09996 0.06797,-0.18967 0.15483,-0.24066z" title="Path 32" id="svg_50" fill="#f5c00b"/>
   <path d="m43.78317,27.86814c0.19876,-0.11668 0.44479,0.0163 0.46844,0.24066c0,0 0.00184,0 0.00184,0c0,0 0,1.06261 0,1.06261c0,0 -0.00193,0 -0.00193,0c-0.01099,0.09996 -0.06797,0.18967 -0.15483,0.24066c-0.19876,0.11668 -0.44479,-0.0163 -0.46844,-0.24066c0,0 -0.00184,0 -0.00184,0c0,0 0,-1.06261 0,-1.06261c0,0 0.00193,0 0.00193,0c0.01099,-0.09996 0.06797,-0.18967 0.15483,-0.24066z" title="Path 33" id="svg_49" fill="#f5c00b"/>
   <path d="m45.03725,27.86814c0.19876,-0.11668 0.44479,0.0163 0.46844,0.24066c0,0 0.00184,0 0.00184,0c0,0 0,1.06261 0,1.06261c0,0 -0.00193,0 -0.00193,0c-0.01099,0.09996 -0.06797,0.18967 -0.15483,0.24066c-0.19876,0.11668 -0.44479,-0.0163 -0.46844,-0.24066c0,0 -0.00184,0 -0.00184,0c0,0 0,-1.06261 0,-1.06261c0,0 0.00193,0 0.00193,0c0.01099,-0.09996 0.06797,-0.18967 0.15483,-0.24066z" title="Path 34" id="svg_48" fill="#f5c00b"/>

  </g>
  <g id="svg_89">
   <ellipse ry="11.4093" rx="11.4093" id="svg_1" cy="24" cx="24" stroke="#bfbfbf" fill="#3a3a3a"/>
   <g id="svg_6">
    <line stroke-width="4" id="svg_5" y2="30.12176" x2="20.49052" y1="17.87824" x1="20.49052" stroke="#bfbfbf" fill="none"/>
    <line stroke-width="4" id="svg_4" y2="30.12176" x2="27.50947" y1="17.87824" x1="27.50947" stroke="#bfbfbf" fill="none"/>
   </g>
  </g>
 </g>

</svg>